<?xml version="1.0" encoding="UTF-8"?>
<svg id="SVGDoc" width="17" height="25" xmlns="http://www.w3.org/2000/svg" version="1.1" xmlns:xlink="http://www.w3.org/1999/xlink" xmlns:avocode="https://avocode.com/" viewBox="0 0 17 25"><defs><clipPath id="ClipPath1121"><path d="M-0.00002,0.00014v0h17.00008v0v24.99994v0h-17.00008v0z" fill="#ffffff"></path></clipPath><clipPath id="ClipPath1128"><path d="M2.00007,2.00002h13.00001v4.00008h-13.00001zM2.00007,7.0002h13.00001v1.99989h-13.00001zM2.00007,10.00018h5.99992v0.99979h-5.99992zM9.00004,10.00018h6.00004v6.99975h-6.00004zM2.00007,12.00006h5.99992v1.0001h-5.99992zM2.00007,13.99995h5.99992v1.0001h-5.99992zM2.00007,16.00014h5.99992v0.99979h-5.99992zM2.00007,18.00002h13.00001v1.0001h-13.00001zM2.00007,20.00021h5.99992v0.99979h-5.99992zM9.00004,20.00021h6.00004v0.99979h-6.00004zM2.00007,22.0001h5.99992v1.0001h-5.99992zM9.00004,22.0001h6.00004v1.0001h-6.00004z" fill="#ffffff"></path></clipPath></defs><desc>Generated with Avocode.</desc><g><g><title>Rectangle 30</title><path d="M-0.00002,0.00014v0h17.00008v0v24.99994v0h-17.00008v0z" fill-opacity="0" fill="#ffffff" stroke-dashoffset="0" stroke-dasharray="" stroke-linejoin="miter" stroke-linecap="butt" stroke-opacity="1" stroke="#bb9c66" stroke-miterlimit="20" stroke-width="2" clip-path="url(&quot;#ClipPath1121&quot;)"></path></g><g><title>Rectangle 31</title><path d="M2.00007,2.00002h13.00001v4.00008h-13.00001zM2.00007,7.0002h13.00001v1.99989h-13.00001zM2.00007,10.00018h5.99992v0.99979h-5.99992zM9.00004,10.00018h6.00004v6.99975h-6.00004zM2.00007,12.00006h5.99992v1.0001h-5.99992zM2.00007,13.99995h5.99992v1.0001h-5.99992zM2.00007,16.00014h5.99992v0.99979h-5.99992zM2.00007,18.00002h13.00001v1.0001h-13.00001zM2.00007,20.00021h5.99992v0.99979h-5.99992zM9.00004,20.00021h6.00004v0.99979h-6.00004zM2.00007,22.0001h5.99992v1.0001h-5.99992zM9.00004,22.0001h6.00004v1.0001h-6.00004z" fill-opacity="0" fill="#ffffff" stroke-dashoffset="0" stroke-dasharray="" stroke-linejoin="miter" stroke-linecap="butt" stroke-opacity="1" stroke="#bb9c66" stroke-miterlimit="20" stroke-width="2" clip-path="url(&quot;#ClipPath1128&quot;)"></path></g></g></svg>