<?xml version="1.0" encoding="UTF-8"?>
<svg id="SVGDoc" width="21" height="25" xmlns="http://www.w3.org/2000/svg" version="1.1" xmlns:xlink="http://www.w3.org/1999/xlink" xmlns:avocode="https://avocode.com/" viewBox="0 0 21 25"><defs></defs><desc>Generated with Avocode.</desc><g><g><title>Shape 88</title><path d="M20.00008,0.00014v0.99979h-19.00005v6.00027h13.00001v0.99979h-13.00001v5.00017h19.00005v0.99979l-19.00005,0v11.00013h-1.00005v-24.99994z" fill="#bb9c66" fill-opacity="1"></path></g><g><title>Shape 91</title><path d="M4.00004,7.99998v-0.99979l6.99997,-7.00006v0.99979zM9.00004,7.99998v-0.99979l6.00004,-7.00006v0.99979zM1.00002,6.0001v-1.0001l5,-4.99987v0.99979zM-0.00002,10.00018v-1.0001h17.00008v1.0001zM-0.00002,12.00006v-1.0001h19.00005v1.0001z" fill="#bb9c66" fill-opacity="1"></path></g><g><title>Shape 90</title><path d="M20.27438,-0.00934l0.73588,0.67396l-6.91663,6.33541l6.91663,6.33541l-0.73588,0.67396l-7.28452,-6.6724l0.36794,-0.33698l-0.36794,-0.33698z" fill="#bb9c66" fill-opacity="1"></path></g></g></svg>