<?xml version="1.0" encoding="UTF-8"?>
<svg id="SVGDoc" width="22" height="25" xmlns="http://www.w3.org/2000/svg" version="1.1" xmlns:xlink="http://www.w3.org/1999/xlink" xmlns:avocode="https://avocode.com/" viewBox="0 0 22 25"><defs><clipPath id="ClipPath1158"><path d="M22.00005,25.0002h-22.00007v-13.00002l11.00004,6.99975l11.00004,-6.99975z" fill="#ffffff"></path></clipPath><clipPath id="ClipPath1165"><path d="M4.00004,-0.00004v0h14.99999v0v16v0l-6.99997,4.00008v0l-8.00002,-4.00008v0z" fill="#ffffff"></path></clipPath><clipPath id="ClipPath1172"><path d="M7.00006,4.00003v-1.0001h8.99994v1.0001zM7.00006,6.00022v-1.0001h6.99997v1.0001zM7.00006,8.00011v-1.0001h8.99994v1.0001zM7.00006,12.99997v-0.99979h3.99995v0.99979zM14.00003,12.99997v-0.99979h1.99997v0.99979zM7.00006,9.99999v-0.99979h6.99997v0.99979z" fill="#ffffff"></path></clipPath><clipPath id="ClipPath1179"><path d="M-0.00002,14.00007v-1.99989l4.00007,-4.00008l0.18001,1.19877zM19.00003,9.99999v-0.99979l3.00002,3.99977v1.0001z" fill="#ffffff"></path></clipPath></defs><desc>Generated with Avocode.</desc><g><g><title>Rectangle 32</title><path d="M22.00005,25.0002h-22.00007v-13.00002l11.00004,6.99975l11.00004,-6.99975z" fill-opacity="0" fill="#ffffff" stroke-dashoffset="0" stroke-dasharray="" stroke-linejoin="miter" stroke-linecap="butt" stroke-opacity="1" stroke="#bb9c66" stroke-miterlimit="20" stroke-width="2" clip-path="url(&quot;#ClipPath1158&quot;)"></path></g><g><title>Rectangle 33</title><path d="M4.00004,-0.00004v0h14.99999v0v16v0l-6.99997,4.00008v0l-8.00002,-4.00008v0z" fill-opacity="0" fill="#ffffff" stroke-dashoffset="0" stroke-dasharray="" stroke-linejoin="miter" stroke-linecap="butt" stroke-opacity="1" stroke="#bb9c66" stroke-miterlimit="20" stroke-width="2" clip-path="url(&quot;#ClipPath1165&quot;)"></path></g><g><title>Shape 93</title><path d="M7.00006,4.00003v-1.0001h8.99994v1.0001zM7.00006,6.00022v-1.0001h6.99997v1.0001zM7.00006,8.00011v-1.0001h8.99994v1.0001zM7.00006,12.99997v-0.99979h3.99995v0.99979zM14.00003,12.99997v-0.99979h1.99997v0.99979zM7.00006,9.99999v-0.99979h6.99997v0.99979z" fill-opacity="0" fill="#ffffff" stroke-dashoffset="0" stroke-dasharray="" stroke-linejoin="miter" stroke-linecap="butt" stroke-opacity="1" stroke="#bb9c66" stroke-miterlimit="20" stroke-width="2" clip-path="url(&quot;#ClipPath1172&quot;)"></path></g><g><title>Shape 92</title><path d="M-0.00002,14.00007v-1.99989l4.00007,-4.00008l0.18001,1.19877zM19.00003,9.99999v-0.99979l3.00002,3.99977v1.0001z" fill-opacity="0" fill="#ffffff" stroke-dashoffset="0" stroke-dasharray="" stroke-linejoin="miter" stroke-linecap="butt" stroke-opacity="1" stroke="#bb9c66" stroke-miterlimit="20" stroke-width="2" clip-path="url(&quot;#ClipPath1179&quot;)"></path></g></g></svg>