<?xml version="1.0" encoding="UTF-8"?>
<svg id="SVGDoc" width="25" height="18" xmlns="http://www.w3.org/2000/svg" version="1.1" xmlns:xlink="http://www.w3.org/1999/xlink" xmlns:avocode="https://avocode.com/" viewBox="0 0 25 18"><defs><clipPath id="ClipPath1016"><path d="M9.61528,1.02958l0.70715,-0.70697l7.9705,7.97027l0.00008,-0.00008l0.70715,0.70728l-0.70715,0.70728l-0.00006,-0.00006l-7.97051,7.97057l-0.70715,-0.70728l7.97045,-7.9705z" fill="#ffffff"></path></clipPath><clipPath id="ClipPath1023"><path d="M15.61532,1.02958l0.70715,-0.70697l7.97038,7.97027l0.00007,-0.00007l0.70715,0.70728l-0.70715,0.70728l-0.00006,-0.00006l-7.97039,7.97056l-0.70715,-0.70728l7.97034,-7.9705z" fill="#ffffff"></path></clipPath><clipPath id="ClipPath1030"><path d="M0.00009,9.00008v0v-1.0001v0h23.99993v0v1.0001v0z" fill="#ffffff"></path></clipPath></defs><desc>Generated with Avocode.</desc><g><g><title>Shape 32</title><path d="M9.61528,1.02958l0.70715,-0.70697l7.9705,7.97027l0.00008,-0.00008l0.70715,0.70728l-0.70715,0.70728l-0.00006,-0.00006l-7.97051,7.97057l-0.70715,-0.70728l7.97045,-7.9705z" fill-opacity="0" fill="#ffffff" stroke-dashoffset="0" stroke-dasharray="" stroke-linejoin="miter" stroke-linecap="butt" stroke-opacity="1" stroke="#bb9c66" stroke-miterlimit="20" stroke-width="2" clip-path="url(&quot;#ClipPath1016&quot;)"></path></g><g><title>Shape 32</title><path d="M15.61532,1.02958l0.70715,-0.70697l7.97038,7.97027l0.00007,-0.00007l0.70715,0.70728l-0.70715,0.70728l-0.00006,-0.00006l-7.97039,7.97056l-0.70715,-0.70728l7.97034,-7.9705z" fill-opacity="0" fill="#ffffff" stroke-dashoffset="0" stroke-dasharray="" stroke-linejoin="miter" stroke-linecap="butt" stroke-opacity="1" stroke="#bb9c66" stroke-miterlimit="20" stroke-width="2" clip-path="url(&quot;#ClipPath1023&quot;)"></path></g><g><title>Shape 33</title><path d="M0.00009,9.00008v0v-1.0001v0h23.99993v0v1.0001v0z" fill-opacity="0" fill="#ffffff" stroke-dashoffset="0" stroke-dasharray="" stroke-linejoin="miter" stroke-linecap="butt" stroke-opacity="1" stroke="#bb9c66" stroke-miterlimit="20" stroke-width="6" clip-path="url(&quot;#ClipPath1030&quot;)"></path></g></g></svg>