<svg width="108" height="35" xmlns="http://www.w3.org/2000/svg"><defs><clipPath id="a"><path d="M.707 18.2L0 17.5l.707-.7L17.677.01l.708.7L1.415 17.5l16.97 16.79-.707.7L.708 18.2z" fill="#fff"/></clipPath><clipPath id="b"><path d="M24.678.01l.707.7L8.415 17.5l16.97 16.79-.707.7L7 17.5z" fill="#fff"/></clipPath><clipPath id="c"><path d="M108 17.5v-.99H1v.99z" fill="#fff"/></clipPath></defs><path d="M.707 18.2L0 17.5l.707-.7h0L17.677.01l.708.7L1.415 17.5l16.97 16.79-.707.7L.708 18.2z" fill="none" stroke="#bb9c66" stroke-miterlimit="20" stroke-width="6" clip-path="url(&quot;#a&quot;)"/><path d="M24.678.01l.707.7L8.415 17.5l16.97 16.79-.707.7L7 17.5z" fill="none" stroke="#bb9c66" stroke-miterlimit="20" stroke-width="6" clip-path="url(&quot;#b&quot;)"/><path d="M108 17.5v0-.99 0H1v.99z" fill="none" stroke="#bb9c66" stroke-miterlimit="20" stroke-width="6" clip-path="url(&quot;#c&quot;)"/></svg>