<?xml version="1.0" encoding="UTF-8"?>
<svg id="SVGDoc" width="25" height="25" xmlns="http://www.w3.org/2000/svg" version="1.1" xmlns:xlink="http://www.w3.org/1999/xlink" xmlns:avocode="https://avocode.com/" viewBox="0 0 25 25"><defs></defs><desc>Generated with Avocode.</desc><g><g><title>Rectangle 15</title><path d="M12.50008,0.00707v0l12.49301,12.49325v0l-12.49301,12.49294v0l-12.49313,-12.49294v0z" fill="#1c242a" fill-opacity="1"></path></g><g><title>eye</title><path d="M12.00012,9.00059c3.86596,0 6.99997,3.99977 6.99997,3.99977c0,0 -3.13401,4.00008 -6.99997,4.00008c-3.86608,0 -6.99997,-4.00008 -6.99997,-4.00008c0,0 3.13389,-3.99977 6.99997,-3.99977zM6.40002,13.00036c0,0 2.50733,3.33375 5.60009,3.33375c3.09277,0 5.59998,-3.33375 5.59998,-3.33375c0,0 -2.50721,-3.33314 -5.59998,-3.33314c-3.09277,0 -5.60009,3.33314 -5.60009,3.33314zM12.00012,9.80079c1.71816,0 3.11112,1.43259 3.11112,3.19957c0,1.76759 -1.39296,3.20049 -3.11112,3.20049c-1.71828,0 -3.11112,-1.4329 -3.11112,-3.20049c0,-1.76698 1.39284,-3.19957 3.11112,-3.19957z" fill="#ffffff" fill-opacity="1"></path></g></g></svg>