<?xml version="1.0" encoding="UTF-8"?>
<svg id="SVGDoc" width="25" height="25" xmlns="http://www.w3.org/2000/svg" version="1.1" xmlns:xlink="http://www.w3.org/1999/xlink" xmlns:avocode="https://avocode.com/" viewBox="0 0 25 25"><defs></defs><desc>Generated with Avocode.</desc><g><g><title>Rectangle 15</title><path d="M12.50001,0.00707v0l12.49301,12.49325v0l-12.49301,12.49294v0l-12.49301,-12.49294v0z" fill="#1c242a" fill-opacity="1"></path></g><g><title>palm</title><path d="M12.10483,18.00084c-1.88911,0 -4.10473,-2.63106 -4.10473,-4.87516v-4.87485c0,-0.4487 0.30649,-0.81242 0.68414,-0.81242c0.37777,0 0.68414,0.36373 0.68414,0.81242v3.17757c0.2105,-0.01108 0.43983,-0.00414 0.68402,0.00906v-4.81148c0,-0.4487 0.30637,-0.81242 0.68414,-0.81242c0.37789,0 0.68402,0.36373 0.68402,0.81242v4.87516c0.22489,0 0.45441,-0.00877 0.68426,-0.02044v-5.66714c0,-0.449 0.30613,-0.81273 0.6839,-0.81273c0.37789,0 0.68414,0.36373 0.68414,0.81273v5.60938c0.24073,0.00086 0.47083,0.0132 0.68414,0.04541v-4.02994c0,-0.4487 0.30613,-0.81242 0.68402,-0.81242c0.37777,0 0.68402,0.36373 0.68402,0.81242l0,4.89858c0.6874,-0.63978 2.13737,-1.73754 2.47514,-1.3362c0.40066,0.47621 -0.59938,2.52408 -0.99993,2.99998l-3.00014,4.00008c-0.15621,0.18566 -0.43368,-0.00504 -0.73787,-0.33508c-0.36149,0.21338 -0.75119,0.33508 -1.15744,0.33508z" fill="#ffffff" fill-opacity="1"></path></g></g></svg>