<?xml version="1.0" encoding="UTF-8"?>
<svg id="SVGDoc" width="86" height="375" xmlns="http://www.w3.org/2000/svg" version="1.1" xmlns:xlink="http://www.w3.org/1999/xlink" xmlns:avocode="https://avocode.com/" viewBox="0 0 86 375"><defs><clipPath id="ClipPath1077"><path d="M10.23584,39.08126l-0.51677,-0.51533l15.25176,-15.20311l-13.06021,-12.45295l0.5033,-0.5245l13.07191,12.4641l14.93465,-14.88701l0.51689,0.51533l-14.92315,14.87549l3.14981,3.00335l-0.5033,0.5245l-3.1615,-3.0145zM11.22766,74.51863l-0.52917,-0.50861l13.34822,-13.91646l-14.07646,-14.08927l0.51677,-0.51716l14.06589,14.07868l3.7491,-3.90871l0.52905,0.50861l-3.75933,3.91939l15.37592,15.3899l-0.51677,0.51716l-15.36534,-15.37932zM47.16282,75.99218l-0.51868,-0.5193l15.3056,-15.31881l-3.75529,-3.91529l0.52714,-0.50677l3.74507,3.9047l14.25005,-14.26235l0.51868,0.519l-14.26064,14.2731l13.28467,13.85092l-0.52714,0.50647l-13.27444,-13.84002zM58.47519,26.69989l-0.50533,-0.52664l2.8957,-2.76094l-14.73235,-14.68601l0.51498,-0.51319l14.74377,14.6973l13.39058,-12.76741l0.50533,0.52633l-13.37887,12.75649l15.32627,15.27797l-0.51486,0.5135l-15.3378,-15.28956zM43.60288,23.52202c10.09274,0 18.27455,8.15573 18.27455,18.21628c0,10.06056 -8.18181,18.21628 -18.27455,18.21628c-10.09285,0 -18.27466,-8.15573 -18.27466,-18.21628c0,-10.06056 8.18181,-18.21628 18.27466,-18.21628zM43.60288,3.1197c1.21105,0 2.19285,0.9787 2.19285,2.18603c0,1.20702 -0.98181,2.18572 -2.19285,2.18572c-1.21117,0 -2.19297,-0.9787 -2.19297,-2.18572c0,-1.20733 0.98181,-2.18603 2.19297,-2.18603zM43.60288,75.98484c1.21105,0 2.19285,0.9787 2.19285,2.18603c0,1.20733 -0.98181,2.18603 -2.19285,2.18603c-1.21117,0 -2.19297,-0.9787 -2.19297,-2.18603c0,-1.20733 0.98181,-2.18603 2.19297,-2.18603zM80.15209,39.55227c1.21117,0 2.19297,0.9787 2.19297,2.18603c0,1.20733 -0.98181,2.18603 -2.19297,2.18603c-1.21105,0 -2.19285,-0.9787 -2.19285,-2.18603c0,-1.20733 0.98181,-2.18603 2.19285,-2.18603zM7.05355,39.55227c1.21105,0 2.19297,0.9787 2.19297,2.18603c0,1.20733 -0.98193,2.18603 -2.19297,2.18603c-1.21117,0 -2.19297,-0.9787 -2.19297,-2.18603c0,-1.20733 0.98181,-2.18603 2.19297,-2.18603z" fill="#ffffff"></path></clipPath><clipPath id="ClipPath1085"><path d="M6.68805,0.00235l5.68569,5.66741l-5.68569,5.66772l-5.68581,-5.66772zM79.78659,0.00235l5.68581,5.66741l-5.68581,5.66772l-5.68569,-5.66772zM6.91515,72.34391l5.70726,5.82696l-5.70726,5.82696l-5.70726,-5.82696zM80.29049,72.34391l5.70726,5.82696l-5.70726,5.82696l-5.70726,-5.82696zM6.68805,144.00233l5.68569,5.66772l-5.68569,5.66741l-5.68581,-5.66741zM79.78659,144.00233l5.68581,5.66772l-5.68581,5.66741l-5.68569,-5.66741zM6.91515,216.34389l5.70726,5.82696l-5.70726,5.82696l-5.70726,-5.82696zM80.29049,216.34389l5.70726,5.82696l-5.70726,5.82696l-5.70726,-5.82696zM6.68805,291.00229l5.68569,5.66772l-5.68569,5.66741l-5.68581,-5.66741zM79.78659,291.00229l5.68581,5.66772l-5.68581,5.66741l-5.68569,-5.66741zM6.91515,363.34385l5.70726,5.82696l-5.70726,5.82696l-5.70726,-5.82696zM80.29049,363.34385l5.70726,5.82696l-5.70726,5.82696l-5.70726,-5.82696z" fill="#ffffff"></path></clipPath><clipPath id="ClipPath1092"><path d="M10.23584,111.0811l-0.51677,-0.51502l15.25176,-15.20311l-13.06021,-12.45295l0.5033,-0.52481l13.07194,12.46437l14.93461,-14.88697l0.51689,0.51533l-14.9232,14.87539l3.14985,3.00345l-0.5033,0.5245l-3.16158,-3.01457zM11.22766,146.51846l-0.52917,-0.5083l13.34836,-13.91661l-14.07661,-14.08942l0.51677,-0.51716l14.06604,14.07883l3.74895,-3.90855l0.52905,0.5083l-3.75933,3.91939l15.37592,15.3899l-0.51677,0.51716l-15.36534,-15.37932zM47.16282,147.99201l-0.51868,-0.519l15.30564,-15.31901l-3.75534,-3.9154l0.52714,-0.50647l3.74499,3.90462l14.25013,-14.26257l0.51868,0.5193l-14.26071,14.27302l13.28475,13.85099l-0.52714,0.50647l-13.2744,-13.84021zM58.47519,98.69972l-0.50533,-0.52664l2.89562,-2.76087l-14.73227,-14.68578l0.51498,-0.5135l14.74369,14.69737l13.39065,-12.76748l0.50533,0.52664l-13.37891,12.75629l15.32632,15.27817l-0.51486,0.51319l-15.33785,-15.28946zM43.60288,95.52185c10.09274,0 18.27455,8.15573 18.27455,18.21628c0,10.06056 -8.18181,18.21628 -18.27455,18.21628c-10.09285,0 -18.27466,-8.15573 -18.27466,-18.21628c0,-10.06056 8.18181,-18.21628 18.27466,-18.21628zM6.91515,144.34405l5.70726,5.82666l-5.70726,5.82696l-5.70726,-5.82696zM80.29049,144.34405l5.70726,5.82666l-5.70726,5.82696l-5.70726,-5.82696zM43.60288,147.98498c1.21105,0 2.19285,0.9787 2.19285,2.18572c0,1.20733 -0.98181,2.18603 -2.19285,2.18603c-1.21117,0 -2.19297,-0.9787 -2.19297,-2.18603c0,-1.20702 0.98181,-2.18572 2.19297,-2.18572zM80.15209,111.55211c1.21117,0 2.19297,0.9787 2.19297,2.18603c0,1.20733 -0.98181,2.18603 -2.19297,2.18603c-1.21105,0 -2.19285,-0.9787 -2.19285,-2.18603c0,-1.20733 0.98181,-2.18603 2.19285,-2.18603zM7.05355,111.55211c1.21105,0 2.19297,0.9787 2.19297,2.18603c0,1.20733 -0.98193,2.18603 -2.19297,2.18603c-1.21117,0 -2.19297,-0.9787 -2.19297,-2.18603c0,-1.20733 0.98181,-2.18603 2.19297,-2.18603zM10.04046,184.09968l-0.5182,-0.51502l15.291,-15.19681l-13.09386,-12.44794l0.50473,-0.52419l13.10559,12.45886l14.97309,-14.88085l0.5182,0.51502l-14.96157,14.8694l3.15794,3.00211l-0.50473,0.5245l-3.16968,-3.01332zM11.03466,219.52237l-0.53048,-0.50799l13.38276,-13.911l-14.11279,-14.08342l0.51808,-0.51716l14.10223,14.07302l3.75865,-3.90702l0.53048,0.5083l-3.76903,3.91774l15.41554,15.38361l-0.51808,0.51686l-15.40499,-15.37292zM47.06257,220.99531l-0.51999,-0.51869l15.34518,-15.31267l-3.76507,-3.9138l0.52845,-0.50647l3.75484,3.90314l14.28677,-14.25651l0.51999,0.51869l-14.29749,14.2672l13.31914,13.8452l-0.52857,0.50647l-13.30879,-13.83453zM58.40414,171.72319l-0.50652,-0.52633l2.90313,-2.75974l-14.77041,-14.67988l0.5163,-0.51289l14.78177,14.69117l13.42529,-12.7622l0.50652,0.52633l-13.4135,12.75099l15.36603,15.27185l-0.5163,0.51289l-15.37739,-15.28314zM43.49344,168.54685c10.11884,0 18.32175,8.15237 18.32175,18.20864c0,10.05658 -8.20291,18.20895 -18.32175,18.20895c-10.11884,0 -18.32187,-8.15237 -18.32187,-18.20895c0,-10.05628 8.20303,-18.20864 18.32187,-18.20864zM6.71106,217.34887l5.72205,5.82452l-5.72205,5.82452l-5.72193,-5.82452zM80.27583,217.34887l5.72193,5.82452l-5.72193,5.82452l-5.72205,-5.82452zM43.49344,220.98828c1.21427,0 2.19858,0.97809 2.19858,2.18511c0,1.20672 -0.98431,2.1848 -2.19858,2.1848c-1.21427,0 -2.19858,-0.97809 -2.19858,-2.1848c0,-1.20702 0.98431,-2.18511 2.19858,-2.18511zM80.13707,184.57038c1.21427,0 2.19858,0.97839 2.19858,2.18511c0,1.20702 -0.98431,2.18511 -2.19858,2.18511c-1.21427,0 -2.19858,-0.97809 -2.19858,-2.18511c0,-1.20672 0.98431,-2.18511 2.19858,-2.18511zM6.84982,184.57038c1.21427,0 2.19858,0.97839 2.19858,2.18511c0,1.20702 -0.98431,2.18511 -2.19858,2.18511c-1.21427,0 -2.19858,-0.97809 -2.19858,-2.18511c0,-1.20672 0.98431,-2.18511 2.19858,-2.18511zM9.84448,257.08799l-0.51963,-0.51472l15.33053,-15.19046l-13.12767,-12.44268l0.50604,-0.52419l13.13941,12.45381l15.01174,-14.87458l0.51963,0.51472l-15.00029,14.86323l3.16615,3.00094l-0.50604,0.52419l-3.17789,-3.01207zM10.8413,292.49632l-0.53191,-0.50799l13.41726,-13.90518l-14.14921,-14.07762l0.51939,-0.51686l14.13866,14.06713l3.76836,-3.9054l0.53179,0.50799l-3.77874,3.91618l15.45541,15.37722l-0.51939,0.51686l-15.44486,-15.36673zM46.96208,293.96865l-0.5213,-0.51869l15.38467,-15.30632l-3.77476,-3.9122l0.52989,-0.50616l3.76441,3.90147l14.32381,-14.25087l0.5213,0.51869l-14.33444,14.26144l13.35347,13.83965l-0.52989,0.50616l-13.34312,-13.82892zM58.33297,244.71701l-0.50795,-0.52633l2.91055,-2.75857l-14.80835,-14.67372l0.51761,-0.51289l14.81989,14.68509l13.45989,-12.75704l0.50795,0.52603l-13.44806,12.74606l15.40559,15.26547l-0.51773,0.51289l-15.41701,-15.27684zM43.38377,241.54158c10.14495,0 18.36908,8.149 18.36908,18.20131c0,10.0523 -8.22413,18.20131 -18.36908,18.20131c-10.14495,0 -18.36908,-8.149 -18.36908,-18.20131c0,-10.0523 8.22413,-18.20131 18.36908,-18.20131zM6.5065,290.32344l5.73671,5.82207l-5.73671,5.82238l-5.73671,-5.82238zM80.26105,290.32344l5.73671,5.82207l-5.73671,5.82238l-5.73683,-5.82238zM43.38377,293.96162c1.21737,0 2.2043,0.97778 2.2043,2.18389c0,1.20641 -0.98693,2.18419 -2.2043,2.18419c-1.21737,0 -2.2043,-0.97778 -2.2043,-2.18419c0,-1.20611 0.98693,-2.18389 2.2043,-2.18389zM80.12193,257.5587c1.21737,0 2.2043,0.97809 2.2043,2.18419c0,1.20641 -0.98693,2.18419 -2.2043,2.18419c-1.21737,0 -2.2043,-0.97778 -2.2043,-2.18419c0,-1.20611 0.98693,-2.18419 2.2043,-2.18419zM6.64561,257.5587c1.21737,0 2.2043,0.97809 2.2043,2.18419c0,1.20641 -0.98693,2.18419 -2.2043,2.18419c-1.21737,0 -2.2043,-0.97778 -2.2043,-2.18419c0,-1.20611 0.98693,-2.18419 2.2043,-2.18419zM9.6479,330.04666l-0.52083,-0.51472l15.37004,-15.18418l-13.16157,-12.43765l0.50735,-0.52389l13.17337,12.44865l15.0505,-14.86851l0.52083,0.51441l-15.03892,14.85721l3.17425,2.99963l-0.50724,0.52419l-3.18618,-3.01093zM10.64735,365.44032l-0.53322,-0.50799l13.45181,-13.89931l-14.18566,-14.07187l0.52071,-0.51655l14.17509,14.06133l3.77819,-3.90388l0.53322,0.50799l-3.78853,3.91457l15.49524,15.37089l-0.52083,0.51655l-15.48455,-15.36034zM46.86134,366.91203l-0.52261,-0.51839l15.42446,-15.3002l-3.78462,-3.91067l0.53132,-0.50586l3.77415,3.89988l14.36068,-14.245l0.52261,0.51869l-14.37128,14.25537l13.38781,13.8338l-0.5312,0.50586l-13.37746,-13.82301zM58.26157,317.68026l-0.50914,-0.52572l2.9181,-2.75751l-14.84666,-14.66774l0.51892,-0.51289l14.85831,14.67926l13.49443,-12.75181l0.50926,0.52603l-13.48275,12.74044l15.44529,15.25917l-0.51892,0.51289l-15.45695,-15.27069zM43.27386,314.50636c10.17106,0 18.4164,8.14564 18.4164,18.19397c0,10.04802 -8.24535,18.19397 -18.4164,18.19397c-10.17118,0 -18.41652,-8.14595 -18.41652,-18.19397c0,-10.04833 8.24535,-18.19397 18.41652,-18.19397zM6.30146,363.26835l5.75149,5.81963l-5.75149,5.81993l-5.75161,-5.81993zM80.24614,363.26835l5.75161,5.81963l-5.75161,5.81993l-5.75149,-5.81993zM43.27386,366.9047c1.22046,0 2.2099,0.97748 2.2099,2.18328c0,1.2058 -0.98944,2.18328 -2.2099,2.18328c-1.22058,0 -2.21002,-0.97748 -2.21002,-2.18328c0,-1.2058 0.98944,-2.18328 2.21002,-2.18328zM80.10679,330.51706c1.22046,0 2.2099,0.97748 2.2099,2.18328c0,1.2058 -0.98944,2.18328 -2.2099,2.18328c-1.22058,0 -2.21002,-0.97748 -2.21002,-2.18328c0,-1.2058 0.98944,-2.18328 2.21002,-2.18328zM6.44081,330.51706c1.22058,0 2.21002,0.97748 2.21002,2.18328c0,1.2058 -0.98944,2.18328 -2.21002,2.18328c-1.22046,0 -2.2099,-0.97748 -2.2099,-2.18328c0,-1.2058 0.98944,-2.18328 2.2099,-2.18328z" fill="#ffffff"></path></clipPath></defs><desc>Generated with Avocode.</desc><g><g><title>pattern</title><g><title>Shape 83</title><path d="M10.23584,39.08126l-0.51677,-0.51533l15.25176,-15.20311l-13.06021,-12.45295l0.5033,-0.5245l13.07191,12.4641l14.93465,-14.88701l0.51689,0.51533l-14.92315,14.87549l3.14981,3.00335l-0.5033,0.5245l-3.1615,-3.0145zM11.22766,74.51863l-0.52917,-0.50861l13.34822,-13.91646l-14.07646,-14.08927l0.51677,-0.51716l14.06589,14.07868l3.7491,-3.90871l0.52905,0.50861l-3.75933,3.91939l15.37592,15.3899l-0.51677,0.51716l-15.36534,-15.37932zM47.16282,75.99218l-0.51868,-0.5193l15.3056,-15.31881l-3.75529,-3.91529l0.52714,-0.50677l3.74507,3.9047l14.25005,-14.26235l0.51868,0.519l-14.26064,14.2731l13.28467,13.85092l-0.52714,0.50647l-13.27444,-13.84002zM58.47519,26.69989l-0.50533,-0.52664l2.8957,-2.76094l-14.73235,-14.68601l0.51498,-0.51319l14.74377,14.6973l13.39058,-12.76741l0.50533,0.52633l-13.37887,12.75649l15.32627,15.27797l-0.51486,0.5135l-15.3378,-15.28956zM43.60288,23.52202c10.09274,0 18.27455,8.15573 18.27455,18.21628c0,10.06056 -8.18181,18.21628 -18.27455,18.21628c-10.09285,0 -18.27466,-8.15573 -18.27466,-18.21628c0,-10.06056 8.18181,-18.21628 18.27466,-18.21628zM43.60288,3.1197c1.21105,0 2.19285,0.9787 2.19285,2.18603c0,1.20702 -0.98181,2.18572 -2.19285,2.18572c-1.21117,0 -2.19297,-0.9787 -2.19297,-2.18572c0,-1.20733 0.98181,-2.18603 2.19297,-2.18603zM43.60288,75.98484c1.21105,0 2.19285,0.9787 2.19285,2.18603c0,1.20733 -0.98181,2.18603 -2.19285,2.18603c-1.21117,0 -2.19297,-0.9787 -2.19297,-2.18603c0,-1.20733 0.98181,-2.18603 2.19297,-2.18603zM80.15209,39.55227c1.21117,0 2.19297,0.9787 2.19297,2.18603c0,1.20733 -0.98181,2.18603 -2.19297,2.18603c-1.21105,0 -2.19285,-0.9787 -2.19285,-2.18603c0,-1.20733 0.98181,-2.18603 2.19285,-2.18603zM7.05355,39.55227c1.21105,0 2.19297,0.9787 2.19297,2.18603c0,1.20733 -0.98193,2.18603 -2.19297,2.18603c-1.21117,0 -2.19297,-0.9787 -2.19297,-2.18603c0,-1.20733 0.98181,-2.18603 2.19297,-2.18603z" fill-opacity="0" fill="#ffffff" stroke-dashoffset="0" stroke-dasharray="" stroke-linejoin="miter" stroke-linecap="butt" stroke-opacity="1" stroke="#bb9c66" stroke-miterlimit="20" stroke-width="2" clip-path="url(&quot;#ClipPath1077&quot;)"></path></g><g><title>Shape 84</title><path d="M6.68805,0.00235l5.68569,5.66741l-5.68569,5.66772l-5.68581,-5.66772zM79.78659,0.00235l5.68581,5.66741l-5.68581,5.66772l-5.68569,-5.66772zM6.91515,72.34391l5.70726,5.82696l-5.70726,5.82696l-5.70726,-5.82696zM80.29049,72.34391l5.70726,5.82696l-5.70726,5.82696l-5.70726,-5.82696zM6.68805,144.00233l5.68569,5.66772l-5.68569,5.66741l-5.68581,-5.66741zM79.78659,144.00233l5.68581,5.66772l-5.68581,5.66741l-5.68569,-5.66741zM6.91515,216.34389l5.70726,5.82696l-5.70726,5.82696l-5.70726,-5.82696zM80.29049,216.34389l5.70726,5.82696l-5.70726,5.82696l-5.70726,-5.82696zM6.68805,291.00229l5.68569,5.66772l-5.68569,5.66741l-5.68581,-5.66741zM79.78659,291.00229l5.68581,5.66772l-5.68581,5.66741l-5.68569,-5.66741zM6.91515,363.34385l5.70726,5.82696l-5.70726,5.82696l-5.70726,-5.82696zM80.29049,363.34385l5.70726,5.82696l-5.70726,5.82696l-5.70726,-5.82696z" fill="#bb9c66" fill-opacity="1"></path><path d="M6.68805,0.00235l5.68569,5.66741l-5.68569,5.66772l-5.68581,-5.66772zM79.78659,0.00235l5.68581,5.66741l-5.68581,5.66772l-5.68569,-5.66772zM6.91515,72.34391l5.70726,5.82696l-5.70726,5.82696l-5.70726,-5.82696zM80.29049,72.34391l5.70726,5.82696l-5.70726,5.82696l-5.70726,-5.82696zM6.68805,144.00233l5.68569,5.66772l-5.68569,5.66741l-5.68581,-5.66741zM79.78659,144.00233l5.68581,5.66772l-5.68581,5.66741l-5.68569,-5.66741zM6.91515,216.34389l5.70726,5.82696l-5.70726,5.82696l-5.70726,-5.82696zM80.29049,216.34389l5.70726,5.82696l-5.70726,5.82696l-5.70726,-5.82696zM6.68805,291.00229l5.68569,5.66772l-5.68569,5.66741l-5.68581,-5.66741zM79.78659,291.00229l5.68581,5.66772l-5.68581,5.66741l-5.68569,-5.66741zM6.91515,363.34385l5.70726,5.82696l-5.70726,5.82696l-5.70726,-5.82696zM80.29049,363.34385l5.70726,5.82696l-5.70726,5.82696l-5.70726,-5.82696z" fill-opacity="0" fill="#ffffff" stroke-dashoffset="0" stroke-dasharray="" stroke-linejoin="miter" stroke-linecap="butt" stroke-opacity="1" stroke="#bb9c66" stroke-miterlimit="20" stroke-width="2" clip-path="url(&quot;#ClipPath1085&quot;)"></path></g><g><title>Shape 83</title><path d="M10.23584,111.0811l-0.51677,-0.51502l15.25176,-15.20311l-13.06021,-12.45295l0.5033,-0.52481l13.07194,12.46437l14.93461,-14.88697l0.51689,0.51533l-14.9232,14.87539l3.14985,3.00345l-0.5033,0.5245l-3.16158,-3.01457zM11.22766,146.51846l-0.52917,-0.5083l13.34836,-13.91661l-14.07661,-14.08942l0.51677,-0.51716l14.06604,14.07883l3.74895,-3.90855l0.52905,0.5083l-3.75933,3.91939l15.37592,15.3899l-0.51677,0.51716l-15.36534,-15.37932zM47.16282,147.99201l-0.51868,-0.519l15.30564,-15.31901l-3.75534,-3.9154l0.52714,-0.50647l3.74499,3.90462l14.25013,-14.26257l0.51868,0.5193l-14.26071,14.27302l13.28475,13.85099l-0.52714,0.50647l-13.2744,-13.84021zM58.47519,98.69972l-0.50533,-0.52664l2.89562,-2.76087l-14.73227,-14.68578l0.51498,-0.5135l14.74369,14.69737l13.39065,-12.76748l0.50533,0.52664l-13.37891,12.75629l15.32632,15.27817l-0.51486,0.51319l-15.33785,-15.28946zM43.60288,95.52185c10.09274,0 18.27455,8.15573 18.27455,18.21628c0,10.06056 -8.18181,18.21628 -18.27455,18.21628c-10.09285,0 -18.27466,-8.15573 -18.27466,-18.21628c0,-10.06056 8.18181,-18.21628 18.27466,-18.21628zM6.91515,144.34405l5.70726,5.82666l-5.70726,5.82696l-5.70726,-5.82696zM80.29049,144.34405l5.70726,5.82666l-5.70726,5.82696l-5.70726,-5.82696zM43.60288,147.98498c1.21105,0 2.19285,0.9787 2.19285,2.18572c0,1.20733 -0.98181,2.18603 -2.19285,2.18603c-1.21117,0 -2.19297,-0.9787 -2.19297,-2.18603c0,-1.20702 0.98181,-2.18572 2.19297,-2.18572zM80.15209,111.55211c1.21117,0 2.19297,0.9787 2.19297,2.18603c0,1.20733 -0.98181,2.18603 -2.19297,2.18603c-1.21105,0 -2.19285,-0.9787 -2.19285,-2.18603c0,-1.20733 0.98181,-2.18603 2.19285,-2.18603zM7.05355,111.55211c1.21105,0 2.19297,0.9787 2.19297,2.18603c0,1.20733 -0.98193,2.18603 -2.19297,2.18603c-1.21117,0 -2.19297,-0.9787 -2.19297,-2.18603c0,-1.20733 0.98181,-2.18603 2.19297,-2.18603zM10.04046,184.09968l-0.5182,-0.51502l15.291,-15.19681l-13.09386,-12.44794l0.50473,-0.52419l13.10559,12.45886l14.97309,-14.88085l0.5182,0.51502l-14.96157,14.8694l3.15794,3.00211l-0.50473,0.5245l-3.16968,-3.01332zM11.03466,219.52237l-0.53048,-0.50799l13.38276,-13.911l-14.11279,-14.08342l0.51808,-0.51716l14.10223,14.07302l3.75865,-3.90702l0.53048,0.5083l-3.76903,3.91774l15.41554,15.38361l-0.51808,0.51686l-15.40499,-15.37292zM47.06257,220.99531l-0.51999,-0.51869l15.34518,-15.31267l-3.76507,-3.9138l0.52845,-0.50647l3.75484,3.90314l14.28677,-14.25651l0.51999,0.51869l-14.29749,14.2672l13.31914,13.8452l-0.52857,0.50647l-13.30879,-13.83453zM58.40414,171.72319l-0.50652,-0.52633l2.90313,-2.75974l-14.77041,-14.67988l0.5163,-0.51289l14.78177,14.69117l13.42529,-12.7622l0.50652,0.52633l-13.4135,12.75099l15.36603,15.27185l-0.5163,0.51289l-15.37739,-15.28314zM43.49344,168.54685c10.11884,0 18.32175,8.15237 18.32175,18.20864c0,10.05658 -8.20291,18.20895 -18.32175,18.20895c-10.11884,0 -18.32187,-8.15237 -18.32187,-18.20895c0,-10.05628 8.20303,-18.20864 18.32187,-18.20864zM6.71106,217.34887l5.72205,5.82452l-5.72205,5.82452l-5.72193,-5.82452zM80.27583,217.34887l5.72193,5.82452l-5.72193,5.82452l-5.72205,-5.82452zM43.49344,220.98828c1.21427,0 2.19858,0.97809 2.19858,2.18511c0,1.20672 -0.98431,2.1848 -2.19858,2.1848c-1.21427,0 -2.19858,-0.97809 -2.19858,-2.1848c0,-1.20702 0.98431,-2.18511 2.19858,-2.18511zM80.13707,184.57038c1.21427,0 2.19858,0.97839 2.19858,2.18511c0,1.20702 -0.98431,2.18511 -2.19858,2.18511c-1.21427,0 -2.19858,-0.97809 -2.19858,-2.18511c0,-1.20672 0.98431,-2.18511 2.19858,-2.18511zM6.84982,184.57038c1.21427,0 2.19858,0.97839 2.19858,2.18511c0,1.20702 -0.98431,2.18511 -2.19858,2.18511c-1.21427,0 -2.19858,-0.97809 -2.19858,-2.18511c0,-1.20672 0.98431,-2.18511 2.19858,-2.18511zM9.84448,257.08799l-0.51963,-0.51472l15.33053,-15.19046l-13.12767,-12.44268l0.50604,-0.52419l13.13941,12.45381l15.01174,-14.87458l0.51963,0.51472l-15.00029,14.86323l3.16615,3.00094l-0.50604,0.52419l-3.17789,-3.01207zM10.8413,292.49632l-0.53191,-0.50799l13.41726,-13.90518l-14.14921,-14.07762l0.51939,-0.51686l14.13866,14.06713l3.76836,-3.9054l0.53179,0.50799l-3.77874,3.91618l15.45541,15.37722l-0.51939,0.51686l-15.44486,-15.36673zM46.96208,293.96865l-0.5213,-0.51869l15.38467,-15.30632l-3.77476,-3.9122l0.52989,-0.50616l3.76441,3.90147l14.32381,-14.25087l0.5213,0.51869l-14.33444,14.26144l13.35347,13.83965l-0.52989,0.50616l-13.34312,-13.82892zM58.33297,244.71701l-0.50795,-0.52633l2.91055,-2.75857l-14.80835,-14.67372l0.51761,-0.51289l14.81989,14.68509l13.45989,-12.75704l0.50795,0.52603l-13.44806,12.74606l15.40559,15.26547l-0.51773,0.51289l-15.41701,-15.27684zM43.38377,241.54158c10.14495,0 18.36908,8.149 18.36908,18.20131c0,10.0523 -8.22413,18.20131 -18.36908,18.20131c-10.14495,0 -18.36908,-8.149 -18.36908,-18.20131c0,-10.0523 8.22413,-18.20131 18.36908,-18.20131zM6.5065,290.32344l5.73671,5.82207l-5.73671,5.82238l-5.73671,-5.82238zM80.26105,290.32344l5.73671,5.82207l-5.73671,5.82238l-5.73683,-5.82238zM43.38377,293.96162c1.21737,0 2.2043,0.97778 2.2043,2.18389c0,1.20641 -0.98693,2.18419 -2.2043,2.18419c-1.21737,0 -2.2043,-0.97778 -2.2043,-2.18419c0,-1.20611 0.98693,-2.18389 2.2043,-2.18389zM80.12193,257.5587c1.21737,0 2.2043,0.97809 2.2043,2.18419c0,1.20641 -0.98693,2.18419 -2.2043,2.18419c-1.21737,0 -2.2043,-0.97778 -2.2043,-2.18419c0,-1.20611 0.98693,-2.18419 2.2043,-2.18419zM6.64561,257.5587c1.21737,0 2.2043,0.97809 2.2043,2.18419c0,1.20641 -0.98693,2.18419 -2.2043,2.18419c-1.21737,0 -2.2043,-0.97778 -2.2043,-2.18419c0,-1.20611 0.98693,-2.18419 2.2043,-2.18419zM9.6479,330.04666l-0.52083,-0.51472l15.37004,-15.18418l-13.16157,-12.43765l0.50735,-0.52389l13.17337,12.44865l15.0505,-14.86851l0.52083,0.51441l-15.03892,14.85721l3.17425,2.99963l-0.50724,0.52419l-3.18618,-3.01093zM10.64735,365.44032l-0.53322,-0.50799l13.45181,-13.89931l-14.18566,-14.07187l0.52071,-0.51655l14.17509,14.06133l3.77819,-3.90388l0.53322,0.50799l-3.78853,3.91457l15.49524,15.37089l-0.52083,0.51655l-15.48455,-15.36034zM46.86134,366.91203l-0.52261,-0.51839l15.42446,-15.3002l-3.78462,-3.91067l0.53132,-0.50586l3.77415,3.89988l14.36068,-14.245l0.52261,0.51869l-14.37128,14.25537l13.38781,13.8338l-0.5312,0.50586l-13.37746,-13.82301zM58.26157,317.68026l-0.50914,-0.52572l2.9181,-2.75751l-14.84666,-14.66774l0.51892,-0.51289l14.85831,14.67926l13.49443,-12.75181l0.50926,0.52603l-13.48275,12.74044l15.44529,15.25917l-0.51892,0.51289l-15.45695,-15.27069zM43.27386,314.50636c10.17106,0 18.4164,8.14564 18.4164,18.19397c0,10.04802 -8.24535,18.19397 -18.4164,18.19397c-10.17118,0 -18.41652,-8.14595 -18.41652,-18.19397c0,-10.04833 8.24535,-18.19397 18.41652,-18.19397zM6.30146,363.26835l5.75149,5.81963l-5.75149,5.81993l-5.75161,-5.81993zM80.24614,363.26835l5.75161,5.81963l-5.75161,5.81993l-5.75149,-5.81993zM43.27386,366.9047c1.22046,0 2.2099,0.97748 2.2099,2.18328c0,1.2058 -0.98944,2.18328 -2.2099,2.18328c-1.22058,0 -2.21002,-0.97748 -2.21002,-2.18328c0,-1.2058 0.98944,-2.18328 2.21002,-2.18328zM80.10679,330.51706c1.22046,0 2.2099,0.97748 2.2099,2.18328c0,1.2058 -0.98944,2.18328 -2.2099,2.18328c-1.22058,0 -2.21002,-0.97748 -2.21002,-2.18328c0,-1.2058 0.98944,-2.18328 2.21002,-2.18328zM6.44081,330.51706c1.22058,0 2.21002,0.97748 2.21002,2.18328c0,1.2058 -0.98944,2.18328 -2.21002,2.18328c-1.22046,0 -2.2099,-0.97748 -2.2099,-2.18328c0,-1.2058 0.98944,-2.18328 2.2099,-2.18328z" fill-opacity="0" fill="#ffffff" stroke-dashoffset="0" stroke-dasharray="" stroke-linejoin="miter" stroke-linecap="butt" stroke-opacity="1" stroke="#bb9c66" stroke-miterlimit="20" stroke-width="2" clip-path="url(&quot;#ClipPath1092&quot;)"></path></g></g></g></svg>