<svg width="17" height="25" xmlns="http://www.w3.org/2000/svg"><defs><clipPath id="a"><path d="M0 0h17v25H0z" fill="#fff"/></clipPath><clipPath id="b"><path d="M2 2h13v4H2zm0 5h13v2H2zm0 3h6v1H2zm7 0h6v7H9zm-7 2h6v1H2zm0 2h6v1H2zm0 2h6v1H2zm0 2h13v1H2zm0 2h6v1H2zm7 0h6v1H9zm-7 2h6v1H2zm7 0h6v1H9z" fill="#fff"/></clipPath></defs><path d="M0 0v0h17v25H0v0z" fill="none" stroke="#bb9c66" stroke-miterlimit="20" stroke-width="2" clip-path="url(&quot;#a&quot;)"/><path d="M2 2h13v4H2zm0 5h13v2H2zm0 3h6v1H2zm7 0h6v7H9zm-7 2h6v1H2zm0 2h6v1H2zm0 2h6v1H2zm0 2h13v1H2zm0 2h6v1H2zm7 0h6v1H9zm-7 2h6v1H2zm7 0h6v1H9z" fill="none" stroke="#bb9c66" stroke-miterlimit="20" stroke-width="2" clip-path="url(&quot;#b&quot;)"/></svg>