<svg width="25" height="18" xmlns="http://www.w3.org/2000/svg"><defs><clipPath id="a"><path d="M9.615 1.03l.707-.707 7.97 7.97h.001L19 9l-.707.707-7.97 7.97-.708-.706L17.585 9z" fill="#fff"/></clipPath><clipPath id="b"><path d="M15.615 1.03l.707-.707 7.97 7.97L25 9l-.707.707-7.97 7.97-.708-.706L23.585 9z" fill="#fff"/></clipPath><clipPath id="c"><path d="M0 9V8h24v1z" fill="#fff"/></clipPath></defs><path d="M9.615 1.03l.707-.707 7.97 7.97h.001L19 9l-.707.707h0l-7.97 7.97-.708-.706L17.585 9z" fill="none" stroke="#bb9c66" stroke-miterlimit="20" stroke-width="2" clip-path="url(&quot;#a&quot;)"/><path d="M15.615 1.03l.707-.707 7.97 7.97h0L25 9l-.707.707h0l-7.97 7.97-.708-.706L23.585 9z" fill="none" stroke="#bb9c66" stroke-miterlimit="20" stroke-width="2" clip-path="url(&quot;#b&quot;)"/><path d="M0 9v0-1 0h24v1z" fill="none" stroke="#bb9c66" stroke-miterlimit="20" stroke-width="6" clip-path="url(&quot;#c&quot;)"/></svg>