<svg width="20" height="21" xmlns="http://www.w3.org/2000/svg"><defs><clipPath id="a"><path d="M20 11c0 5.523-4.477 10-10 10S0 16.523 0 11 4.477 1 10 1v1a9 9 0 106.364 2.636l.707-.707A9.969 9.969 0 0120 11z" fill="#fff"/></clipPath><clipPath id="b"><path d="M1 1V0h9v9H9V1z" fill="#fff"/></clipPath></defs><path d="M20 11c0 5.523-4.477 10-10 10S0 16.523 0 11 4.477 1 10 1v1a9 9 0 106.364 2.636l.707-.707A9.969 9.969 0 0120 11z" fill="none" stroke="#bb9c66" stroke-miterlimit="20" stroke-width="2" clip-path="url(&quot;#a&quot;)"/><path d="M1 1V0h9v9H9V1z" fill="none" stroke="#bb9c66" stroke-miterlimit="20" stroke-width="2" clip-path="url(&quot;#b&quot;)"/></svg>