<?xml version="1.0" encoding="UTF-8"?>
<svg id="SVGDoc" width="20" height="21" xmlns="http://www.w3.org/2000/svg" version="1.1" xmlns:xlink="http://www.w3.org/1999/xlink" xmlns:avocode="https://avocode.com/" viewBox="0 0 20 21"><defs><clipPath id="ClipPath1103"><path d="M19.99999,11.00008c0,5.52284 -4.47714,10.00004 -9.99999,10.00004c-5.52285,0 -9.99999,-4.4772 -9.99999,-10.00004c0,-5.52284 4.47714,-10.00004 9.99999,-10.00004v1.0001c-4.97055,0 -8.99994,4.02942 -8.99994,8.99994c0,4.97052 4.02939,8.99994 8.99994,8.99994c4.97055,0 9.00006,-4.02942 9.00006,-8.99994c0,-2.48529 -1.0074,-4.73529 -2.63613,-6.36397l0.70712,-0.70712c1.80965,1.80966 2.92893,4.30967 2.92893,7.07109z" fill="#ffffff"></path></clipPath><clipPath id="ClipPath1110"><path d="M1.00006,1.00004v-1.0001h8.99994v9.00025h-0.99993v-8.00015z" fill="#ffffff"></path></clipPath></defs><desc>Generated with Avocode.</desc><g><g><title>Ellipse 55</title><path d="M19.99999,11.00008c0,5.52284 -4.47714,10.00004 -9.99999,10.00004c-5.52285,0 -9.99999,-4.4772 -9.99999,-10.00004c0,-5.52284 4.47714,-10.00004 9.99999,-10.00004v1.0001c-4.97055,0 -8.99994,4.02942 -8.99994,8.99994c0,4.97052 4.02939,8.99994 8.99994,8.99994c4.97055,0 9.00006,-4.02942 9.00006,-8.99994c0,-2.48529 -1.0074,-4.73529 -2.63613,-6.36397l0.70712,-0.70712c1.80965,1.80966 2.92893,4.30967 2.92893,7.07109z" fill-opacity="0" fill="#ffffff" stroke-dashoffset="0" stroke-dasharray="" stroke-linejoin="miter" stroke-linecap="butt" stroke-opacity="1" stroke="#bb9c66" stroke-miterlimit="20" stroke-width="2" clip-path="url(&quot;#ClipPath1103&quot;)"></path></g><g><title>Shape 87</title><path d="M1.00006,1.00004v-1.0001h8.99994v9.00025h-0.99993l0,-8.00015z" fill-opacity="0" fill="#ffffff" stroke-dashoffset="0" stroke-dasharray="" stroke-linejoin="miter" stroke-linecap="butt" stroke-opacity="1" stroke="#bb9c66" stroke-miterlimit="20" stroke-width="2" clip-path="url(&quot;#ClipPath1110&quot;)"></path></g></g></svg>